<svg width="25" height="25" viewBox="0 0 25 25" fill="none" xmlns="http://www.w3.org/2000/svg">
<path d="M11.1064 4.48802H6.90645C5.22629 4.48802 4.38621 4.48802 3.74447 4.815C3.17999 5.10262 2.72105 5.56156 2.43343 6.12605C2.10645 6.76778 2.10645 7.60786 2.10645 9.28802V17.688C2.10645 19.3682 2.10645 20.2083 2.43343 20.85C2.72105 21.4145 3.17999 21.8734 3.74447 22.161C4.38621 22.488 5.22629 22.488 6.90645 22.488H15.3064C16.9866 22.488 17.8267 22.488 18.4684 22.161C19.0329 21.8734 19.4918 21.4145 19.7795 20.85C20.1064 20.2083 20.1064 19.3682 20.1064 17.688V13.488M8.10642 16.488H9.78096C10.2701 16.488 10.5147 16.488 10.7449 16.4328C10.949 16.3838 11.1441 16.303 11.323 16.1933C11.5248 16.0696 11.6978 15.8967 12.0437 15.5508L21.6064 5.98802C22.4349 5.15959 22.4349 3.81645 21.6064 2.98802C20.778 2.15959 19.4349 2.15959 18.6064 2.98802L9.04368 12.5508C8.69778 12.8967 8.52482 13.0696 8.40114 13.2715C8.29148 13.4504 8.21067 13.6455 8.16168 13.8496C8.10642 14.0797 8.10642 14.3243 8.10642 14.8135V16.488Z" stroke="#BBC2C0" stroke-width="1.5" stroke-linecap="round" stroke-linejoin="round"/>
</svg>
