<svg width="25" height="25" viewBox="0 0 25 25" fill="none" xmlns="http://www.w3.org/2000/svg">
<path d="M8.10645 17.488H16.1064M11.1241 3.25204L4.34184 8.52716C3.88847 8.87978 3.66178 9.05609 3.49847 9.27689C3.35381 9.47248 3.24605 9.69282 3.18047 9.92709C3.10645 10.1916 3.10645 10.4787 3.10645 11.0531V18.288C3.10645 19.4081 3.10645 19.9682 3.32443 20.396C3.51618 20.7723 3.82214 21.0783 4.19846 21.27C4.62629 21.488 5.18634 21.488 6.30645 21.488H17.9064C19.0266 21.488 19.5866 21.488 20.0144 21.27C20.3908 21.0783 20.6967 20.7723 20.8885 20.396C21.1064 19.9682 21.1064 19.4081 21.1064 18.288V11.0531C21.1064 10.4787 21.1064 10.1916 21.0324 9.92709C20.9668 9.69282 20.8591 9.47248 20.7144 9.27689C20.5511 9.05609 20.3244 8.87978 19.8711 8.52716L13.0888 3.25204C12.7374 2.97878 12.5618 2.84216 12.3678 2.78964C12.1966 2.7433 12.0162 2.7433 11.8451 2.78964C11.6511 2.84216 11.4755 2.97878 11.1241 3.25204Z" stroke="#D8E9E4" stroke-width="2" stroke-linecap="round" stroke-linejoin="round"/>
</svg>
