<svg width="17" height="17" viewBox="0 0 17 17" fill="none" xmlns="http://www.w3.org/2000/svg">
<path d="M14.6152 8.9126C14.6152 12.2263 11.9289 14.9126 8.61523 14.9126C7.81714 14.9126 7.05544 14.7568 6.35889 14.4739C6.22558 14.4197 6.15893 14.3927 6.10505 14.3806C6.05234 14.3688 6.01334 14.3645 5.95932 14.3645C5.9041 14.3645 5.84396 14.3745 5.72367 14.3945L3.35174 14.7898C3.10336 14.8312 2.97916 14.8519 2.88936 14.8134C2.81076 14.7797 2.74812 14.7171 2.71441 14.6385C2.67589 14.5487 2.69659 14.4245 2.73799 14.1761L3.13331 11.8042C3.15336 11.6839 3.16338 11.6237 3.16337 11.5685C3.16337 11.5145 3.15904 11.4755 3.14723 11.4228C3.13515 11.3689 3.10808 11.3022 3.05394 11.1689C2.77106 10.4724 2.61523 9.71069 2.61523 8.9126C2.61523 5.59889 5.30153 2.9126 8.61523 2.9126C11.9289 2.9126 14.6152 5.59889 14.6152 8.9126Z" stroke="#939494" stroke-linecap="round" stroke-linejoin="round"/>
</svg>
